<?xml version="1.0" encoding="UTF-8" standalone="no"?>
<!DOCTYPE svg PUBLIC "-//W3C//DTD SVG 1.1//EN" "http://www.w3.org/Graphics/SVG/1.1/DTD/svg11.dtd">
<svg width="100%" height="100%" viewBox="0 0 2000 2000" version="1.1" xmlns="http://www.w3.org/2000/svg" xmlns:xlink="http://www.w3.org/1999/xlink" xml:space="preserve" xmlns:serif="http://www.serif.com/" style="fill-rule:evenodd;clip-rule:evenodd;stroke-linejoin:round;stroke-miterlimit:2;">
    <rect x="0" y="0" width="2000" height="2000"/>
    <g id="LHAI" transform="matrix(1.600703,0,0,1.600703,-601.549488,-601.94153)">
        <path id="H" d="M1023.438,794.223L1023.438,425.781L1298.828,425.781L1207.552,608.334L1483.023,608.174L1574.219,425.781L1574.219,976.562L1298.828,976.562L1390.105,794.009L1114.634,794.17L1023.438,976.562L1023.438,794.223Z" style="fill:white;"/>
        <path id="A" d="M1001.302,1575.521L713.542,1575.521L762.171,1478.262L474.327,1478.429L425.781,1575.521L425.781,1384.991L425.781,1194.351L522.957,1000L713.542,1000L713.458,1000.168L1001.302,1000L1001.302,1575.521ZM859.263,1284.079L904.211,1194.183L616.366,1194.351L571.418,1284.246L859.263,1284.079Z" style="fill:white;"/>
        <path id="I" d="M1480.678,1574.219L1023.437,1574.219L1205.287,1194.183L1023.437,1194.183L1116.978,998.698L1574.219,998.698L1574.219,1194.183L1480.678,1194.183L1392.369,1378.734L1574.219,1378.734L1480.678,1574.219Z" style="fill:white;"/>
        <path d="M425.781,976.562L425.781,425.781L713.542,425.781L527.914,781.077L1001.302,781.077L907.761,976.562L425.781,976.562Z" style="fill:white;"/>
    </g>
</svg>
