<?xml version="1.0" encoding="UTF-8" standalone="no"?>
<!DOCTYPE svg PUBLIC "-//W3C//DTD SVG 1.1//EN" "http://www.w3.org/Graphics/SVG/1.1/DTD/svg11.dtd">
<svg width="100%" height="100%" viewBox="0 0 2000 2000" version="1.1" xmlns="http://www.w3.org/2000/svg" xmlns:xlink="http://www.w3.org/1999/xlink" xml:space="preserve" xmlns:serif="http://www.serif.com/" style="fill-rule:evenodd;clip-rule:evenodd;stroke-linejoin:round;stroke-miterlimit:2;">
    <path d="M2000,0L2000,2000L0,2000L0,0L2000,0ZM1002.04,1900.566L1002.04,998.98L551.115,999.243L551.247,998.98L252.685,998.98L100.454,1303.441L100.454,1602.091L100.454,1900.566L176.504,1748.467L627.428,1748.204L551.247,1900.566L1002.04,1900.566ZM779.527,1444.005L328.603,1444.268L399.016,1303.441L849.941,1303.179L779.527,1444.005ZM1753.009,1898.526L1899.546,1592.288L1614.668,1592.288L1753.009,1303.179L1899.546,1303.179L1899.546,996.94L1183.253,996.94L1036.716,1303.179L1321.594,1303.179L1036.716,1898.526L1753.009,1898.526ZM100.454,962.264L855.503,962.264L1002.04,656.026L260.451,656.026L551.247,99.434L100.454,99.434L100.454,962.264ZM1036.716,676.619L1036.716,962.264L1179.58,676.536L1611.121,676.284L1468.131,962.264L1899.546,962.264L1899.546,99.434L1756.682,385.162L1325.141,385.414L1468.131,99.434L1036.716,99.434L1036.716,676.619Z"/>
</svg>
